# xmcd
#
# Track frame offsets:
#	150
#	15162
#	32392
#	48725
#	61567
#	77795
#	91862
#	111557
#	125037
#	141300
#	154652
#	169155
#	186045
#	202465
#	213535
#	231207
#	245950
#	261325
#	273005
#	290185
#
# Disc length: 4078 seconds
#
# Revision: 1
# Processed by: cddbd v1.4PL0 Copyright (c) Steve Scherf et al.
# Submitted via: audiograbber 1.81.03
#
DISCID=2e0fec14
DTITLE=Various Artist - Hott Country 2
DYEAR=1900
DGENRE=Country
TTITLE0=Tracy Lawrence - If You Loved Me
TTITLE1=Diamond Rio - Walkin' Away
TTITLE2=Clay Walker - Hypnotize The Moon
TTITLE3=Lonestar - No News
TTITLE4=Patricia Conroy - Keep Me Rockin'
TTITLE5=John Berry - Every Time My Heart Calls Your Name
TTITLE6=Shania Twain - You Win My Love
TTITLE7=Aaron Tippin - Without Your Love
TTITLE8=Faith Hill - Someone Else's Dream
TTITLE9=Frazier River - She Got What She Deserved
TTITLE10=Chris Cummings - I Waited
TTITLE11=Lee Roy Parnell - Hearts Desire
TTITLE12=Alabama - It Works
TTITLE13=Doug Supernaw - She Never Looks Back
TTITLE14=Terri Clark - If I Were You
TTITLE15=Mary Chapin-Carpenter - Grow Old With Me
TTITLE16=James Bonamy - She's Got A Mind Of Her Own
TTITLE17=Neal McCoy - You Gotta Love That
TTITLE18=Pam Tillis - River and The Highway
TTITLE19=Collin Raye - I Think About You
EXTD=
EXTT0=
EXTT1=
EXTT2=
EXTT3=
EXTT4=
EXTT5=
EXTT6=
EXTT7=
EXTT8=
EXTT9=
EXTT10=
EXTT11=
EXTT12=
EXTT13=
EXTT14=
EXTT15=
EXTT16=
EXTT17=
EXTT18=
EXTT19=
PLAYORDER=
